/* XPM */
static char *_85ea9171cdf49e2ec77798ce3f27a96jhce8X5OtVcpsfBr[] = {
/* columns rows colors chars-per-pixel */
"64 64 135 2 ",
"   c None",
".  c #967E00",
"X  c #9A7F01",
"o  c #917C14",
"O  c #9B8102",
"+  c #9C810A",
"@  c #A18501",
"#  c #A58901",
"$  c #AA8E03",
"%  c #A38B0B",
"&  c #A88F0A",
"*  c #AD9102",
"=  c #AC920A",
"-  c #B29405",
";  c #B79A06",
":  c #BD9D03",
">  c #B1960E",
",  c #B69A08",
"<  c #BA9C0A",
"1  c #AC9314",
"2  c #B39A1B",
"3  c #C4A303",
"4  c #C9A600",
"5  c #CDAB02",
"6  c #C3A408",
"7  c #CFAE0A",
"8  c #D2AE02",
"9  c #D5B201",
"0  c #D9B303",
"q  c #DEBA01",
"w  c #D6B409",
"e  c #D9B60B",
"r  c #D8B616",
"t  c #DEBC16",
"y  c #DCB91A",
"u  c #E2BC01",
"i  c #E2BF19",
"p  c #CEB533",
"a  c #D7BD35",
"s  c #E6C101",
"d  c #EBC301",
"f  c #F5CD01",
"g  c #F8CE02",
"h  c #F7D007",
"j  c #FED503",
"k  c #FED501",
"l  c #FDD504",
"z  c #FED501",
"x  c #FDD60C",
"c  c #EAC610",
"v  c #E3C21D",
"b  c #FDD611",
"n  c #FDD612",
"m  c #FED712",
"M  c #FFD613",
"N  c #FED713",
"B  c #FCD612",
"V  c #FBD81D",
"C  c #DCC33F",
"Z  c #EBC92A",
"A  c #F5D121",
"S  c #FAD620",
"D  c #FDD820",
"F  c #C7B64F",
"G  c #C9B34F",
"H  c #D5BD4A",
"J  c #CAB651",
"K  c #D1BE51",
"L  c #DCC340",
"P  c #DFC542",
"I  c #DEC545",
"U  c #DFC545",
"Y  c #DCC246",
"T  c #E0C747",
"R  c #E3C749",
"E  c #E6CB4D",
"W  c #EFD144",
"Q  c #F1D64C",
"!  c #F6D74C",
"~  c #F2D348",
"^  c #FBDD4B",
"/  c #F2D451",
"(  c #F5D851",
")  c #FADB54",
"_  c #F9DC55",
"`  c #FBDC54",
"'  c #FADC54",
"]  c #F1D75E",
"[  c #F6DD5D",
"{  c #F5DD5B",
"}  c #F3E05C",
"|  c #FDE058",
" . c #F8E35D",
".. c #FAE15E",
"X. c #FBE15F",
"o. c #F8E35E",
"O. c #FDE05E",
"+. c #FCE15E",
"@. c #FCE05F",
"#. c #FCE15F",
"$. c #FDE15E",
"%. c #FCDF65",
"&. c #FBE261",
"*. c #FBE262",
"=. c #FCE060",
"-. c #FCE160",
";. c #FCE061",
":. c #FCE161",
">. c #FDE161",
",. c #FDE361",
"<. c #FCE062",
"1. c #FCE063",
"2. c #FDE063",
"3. c #FCE262",
"4. c #FDE262",
"5. c #FDE363",
"6. c #F9E164",
"7. c #FBE165",
"8. c #FDE164",
"9. c #FCE165",
"0. c #FAE665",
"q. c #FCE162",
"w. c #FBE26F",
"e. c #FBE372",
"r. c #FCE370",
"t. c #FCE374",
"y. c #FCE577",
"u. c #FDE370",
"i. c #FAE67C",
"p. c #FBE67C",
"a. c #FCE67C",
"s. c #FDE77F",
"d. c #FAE67B",
"f. c #FBE182",
"g. c #F3E38D",
/* pixels */
"                                                                                                                                ",
"                                                                                                                                ",
"                                                                                                                                ",
"                                                                                                                                ",
"                                                                                                                                ",
"                                                                                                                                ",
"                                                                                                                                ",
"                                                                                                                                ",
"                                                                                                                                ",
"                                                                                                                                ",
"                                                                                                                                ",
"                                                                                                                                ",
"                                                G ] f f f f 9 4 4 4 4 5 < ,                                                     ",
"                                                H | z z z l u 0 0 0 9 9 6 6                                                     ",
"                                        }  . .0.m z z z z z z z z f 9 9 9 9 : : : =                                             ",
"                                         .;.@.9.m z s s s s s s s u 4 3 8 9 3 3 : =                                             ",
"                                        @.;.@.;.m z * * * * * * * $ # # 3 9 8 5 : ; % +                                         ",
"                                         .;.;.;.m z O X X X X X X X X X 3 0 0 8 : : : :                                         ",
"                                    f.r.6.R 1 % # # 5 5 5 5 5 5 5 5 5 5 - @ @ $ 9 8 3 : & +                                     ",
"                                    e. .[ C % O O O 0 0 0 0 0 0 0 0 9 w * O O # 8 8 3 : : &                                     ",
"                                s.@.%.[ O $ 5 9 9 9 @.;.;.;.;.;.;.Q w 9 9 9 9 4 O O 3 9 : : : +                                 ",
"                                s.;.R L & < y i i i P I I I I I I a 3 3 0 q 9 5 & $ : 3 3 3 : +                                 ",
"                                p.;.1 % 7 y ! _ ) _ % % % % % % % # O O q g 9 9 5 6 $ @ 8 8 : +                                 ",
"                                p.&.% O 9 i _ ;.;.9.X O O O O O O O O . q z 9 9 9 5 & O 8 8 : O                                 ",
"                            y.t.6.&.% O 9 i ) ;.D m X O O X 0 d d 0 . O # $ g f 9 5 & O 8 9 : ; # O                             ",
"                            @.;.;.;.% O 9 i ) ;.m z X O O X u z z s . O O O z f 9 5 & O 8 9 : : : :                             ",
"                            @.E 1 X 5 0 @.^ m z z z X O O X u z z s . O O O z f 9 9 9 9 O @ 0 8 6 :                             ",
"                            @.E 1 X 5 0 ;.^ m z z z X O O X u z z s . O O O z h u q 0 9 O @ 0 8 3 :                             ",
"                            @.E 1 X 5 0 ;.^ m z z z X O O X u z z s . O O O z z l h u 9 O @ 0 8 3 :                             ",
"                            @.E 1 X 5 0 ;.^ m z z z X O O X s x x s X . . . z z z h u 9 O @ 0 8 3 :                             ",
"                            @.E 1 X 5 0 ;.^ m z z z X O O X * - - * X . 5 s z z z h u 9 O @ 0 8 3 :                             ",
"                            @.E 1 X 5 0 ;.^ B z z z X O O X . . . . . . q z z z z h u 9 O @ 0 8 3 :                             ",
"                            @.E 1 X 5 0 ;.^ m z z z X O O X u z z z z z z z z z z h u 9 O @ 0 8 3 :                             ",
"                            @.E 1 X 5 0 &.^ m z z z O X O . s z z z z z z z z z f f q 9 O O 9 8 3 :                             ",
"                            @.E 1 X 5 0 ;.^ m z z z X X O . s z z z z z z z z f 8 9 9 9 O O 9 8 3 :                             ",
"                            @.E 1 . 7 e #.` S b z z X O O . s z z z z z z z z g 9 9 w w O O w 8 6 :                             ",
"                            @.{ R Y > = v Z ^ ^ x z O X O . s z z z z z z z z g 9 8 , * 3 3 3 6 : :                             ",
"                            ;.6.;.;.% O 9 i ) 9.m z O X O . s z z z z z z z z f 0 5 & O 8 8 : : < :                             ",
"                                p.&.% O 9 i _ ;.;.;.O O O . s z z z z z z z 9 9 9 5 & O 8 8 : +                                 ",
"                                p.&.2 1 5 r ~ ( ( ( 1 1 1 & c m m x f g g f 9 9 4 3 * # 8 5 : +                                 ",
"                                p.&.&.{ O & 5 9 9 9 &.&.&.6.;.;.9./ w 0 0 0 9 4 X @ 3 9 : : : +                                 ",
"                                g.d.6.[ % = 6 5 5 5 _ _ _ _ _ _ _ W w 0 8 5 5 3 O # 3 8 : : % o                                 ",
"                                    w.&.T p = & & & i i i i i i i t 9 w ; & & * 3 3 3 6 : *                                     ",
"                                    r.@.9.I % O O O 8 9 9 9 9 9 9 9 9 w * O O # 9 8 6 : : &                                     ",
"                                        ;.^ B h h h O O O O O O O O O X 3 8 8 8 9 8 6 :                                         ",
"                                         .^ V x z z # # # # # # # # @ O 3 9 8 8 8 5 - $                                         ",
"                                         .;.@.;.m z z z z z z z z f 9 9 9 9 : : : %                                             ",
"                                        F J J J A N z z z z f f f d 9 9 8 8 O O O o                                             ",
"                                                Y ` z z z l u q q q 9 9 6 6                                                     ",
"                                                K &.z z z z u 9 9 9 9 9 3 :                                                     ",
"                                                                                                                                ",
"                                                                                                                                ",
"                                                                                                                                ",
"                                                                                                                                ",
"                                                                                                                                ",
"                                                                                                                                ",
"                                                                                                                                ",
"                                                                                                                                ",
"                                                                                                                                ",
"                                                                                                                                ",
"                                                                                                                                ",
"                                                                                                                                ",
"                                                                                                                                ",
"                                                                                                                                "
};
