/* XPM */
static char *deb15fbf44b9480fc4026c3b17dc1ba4eLkjfqjSnFA8saU3[] = {
/* columns rows colors chars-per-pixel */
"64 64 11 1 ",
"  c None",
". c black",
"X c gray13",
"o c gray26",
"O c gray38",
"+ c #FFAB00",
"@ c #FFA726",
"# c #FFD600",
"$ c #FFEB3B",
"% c #FFAB40",
"& c #FFF59D",
/* pixels */
"                                                                ",
"                                                                ",
"                                                                ",
"                                                                ",
"                                                                ",
"                                                                ",
"                                                                ",
"                                                                ",
"                                                                ",
"                        $$$&&$$$$$$&$&$$                        ",
"        &&&&&&&&&&&&&+$$$$$&&$$$$$$&$&$$$$+&&&&&&&&&&&&&        ",
"        &&&&&&&&&&&&$$&&$$$&&$$$$$$&$&$$&&$$&&&&&&&&&&&&        ",
"        $$$$$$$$$$$$$&&+..$....$$$$&.&..+&&$$$$$$$$$$$$$        ",
"         ++++++++++$&+  $$$.&..$$$.&.&$$  +&$++++++++++         ",
"          +&&&&&&&&$&   ...oo......o.o..   &$&&&&&&&&+          ",
"           $$$$$$$$$&   $$$&&$....$&$&$$   &$$$$$$$$$           ",
"           +$$$$$$$$&   ...o&$$..$$&.o..   &$$$$$$$$+           ",
"             &&&&&&$&+  $$$&&$$$$$$&$&$$  +&$&&&&&&             ",
"             &&&&&&&$&&+$$$&&$$$$$$&$&$$+&&$&&&&&&&             ",
"              $$$$$$+$$&$$$&&$$$$$$&$&$$&$$+$$$$$$              ",
"               +++++++$$$$$&&$$$$$$&$&$$$$+++++++               ",
"                        $$$&&$$$$$$&$&$$                        ",
"                        $$$&&$$$$$$&$&$$                        ",
"                        $$$&&$$$$$$&$&$$                        ",
"                        $$+   +&&@   ++$                        ",
"                        +     +&&@     +                        ",
"                              +$$@                              ",
"                              %$$@                              ",
"                              +$$@                              ",
"                              +$$@                              ",
"                              +$$@                              ",
"                              $$$&                              ",
"                              $$&&                              ",
"                              #$&#@                             ",
"                              #$&#@                             ",
"                             $$&&&#                             ",
"                             #$&&&&@                            ",
"                            $#$$&&#&                            ",
"                          @&$@&&$$@&$@                          ",
"                         @&&@&&@@$$@$$$                         ",
"                         &&&&@     $$$$                         ",
"                         &&@&       @$$                         ",
"                         &&&@       $$$                         ",
"                         &&&        $$$                         ",
"                        OOOOXXXXOOOOOXXX                        ",
"                         OOXXXXXOOOOXXX                         ",
"                         OO$$$$$$$$$$XX                         ",
"                         O@$$$$$$$$$$@X                         ",
"                        .O$$$$$$$$$$$$X.                        ",
"                        OO$$$$$$$$$$$$XX                        ",
"                        OO$$$$$$$$$$$$@X                        ",
"                       .OOXXXXXXXOOOOXXX.                       ",
"                      .OOXXXXXXXXOOOOXXXX.                      ",
"                     .OOOXXXXXXXXOOOOOXXXX.                     ",
"                     OOOOXXXXXXXXOOOOOXXXXX                     ",
"                                                                ",
"                                                                ",
"                                                                ",
"                                                                ",
"                                                                ",
"                                                                ",
"                                                                ",
"                                                                ",
"                                                                "
};
