/* XPM */
static char *_63007e05a59478ec7a6350232638d7673BQQEo6sYFIgqT0[] = {
/* columns rows colors chars-per-pixel */
"64 64 204 2 ",
"   c None",
".  c black",
"X  c #010000",
"o  c #010101",
"O  c #030000",
"+  c #020001",
"@  c #030102",
"#  c #040001",
"$  c gray2",
"%  c #080405",
"&  c #081600",
"*  c #0D1905",
"=  c #1A1617",
"-  c #1E1A1B",
";  c #221F16",
":  c #221F1A",
">  c #231F1A",
",  c #231A1D",
"<  c #231C1D",
"1  c #221F1D",
"2  c #221D1F",
"3  c #201E1F",
"4  c #221E1F",
"5  c #241D1E",
"6  c #251C1F",
"7  c #261C1E",
"8  c #251E1F",
"9  c #261E1E",
"0  c #22211D",
"q  c #23201F",
"w  c #2B221E",
"e  c #231E20",
"r  c #221F20",
"t  c #251D20",
"y  c #241F21",
"u  c #261F20",
"i  c #202021",
"p  c gray13",
"a  c #242021",
"s  c #262123",
"d  c #242322",
"f  c #252324",
"g  c #272224",
"h  c gray14",
"j  c #252525",
"k  c #262425",
"l  c #272526",
"z  c #262427",
"x  c #2A2124",
"c  c #282325",
"v  c #2C2326",
"b  c #282627",
"n  c #2D2427",
"m  c #292728",
"M  c #2C2628",
"N  c #2B292A",
"B  c #2D2B2C",
"V  c #2F2A2C",
"C  c #2D2D2D",
"Z  c #2E2C2D",
"A  c #312D2E",
"S  c #322D2F",
"D  c #332E30",
"F  c #323031",
"G  c #333132",
"H  c gray20",
"J  c #343031",
"K  c #343233",
"L  c #353334",
"P  c #363334",
"I  c #333534",
"U  c #343434",
"Y  c #353535",
"T  c #363435",
"R  c #343635",
"E  c #373536",
"W  c #353736",
"Q  c gray21",
"!  c #383234",
"~  c #383335",
"^  c #383435",
"/  c #393536",
"(  c #383637",
")  c #393637",
"_  c #3A3637",
"`  c #363837",
"'  c #393738",
"]  c #3B3D3C",
"[  c gray24",
"{  c gray27",
"}  c #514F50",
"|  c #534F50",
" . c #4F5150",
".. c #4F5251",
"X. c #505050",
"o. c #515151",
"O. c #525051",
"+. c #535051",
"@. c #505251",
"#. c #535152",
"$. c #515352",
"%. c #535353",
"&. c #545051",
"*. c #545152",
"=. c #555152",
"-. c #565052",
";. c #545253",
":. c #525453",
">. c #565354",
",. c gray33",
"<. c #555555",
"1. c #565455",
"2. c #555756",
"3. c #595758",
"4. c #5D595A",
"5. c #5D5B5C",
"6. c #5E5C5D",
"7. c gray37",
"8. c #605E5F",
"9. c #5D605F",
"0. c #626061",
"q. c #636162",
"w. c #646263",
"e. c gray40",
"r. c #6E6C6D",
"t. c #706C6D",
"y. c #736D6F",
"u. c #716F70",
"i. c gray44",
"p. c #767676",
"a. c #777978",
"s. c #838685",
"d. c #888888",
"f. c #808D92",
"g. c #808E97",
"h. c #84929B",
"j. c #85909C",
"k. c #85919D",
"l. c #86909D",
"z. c #86919D",
"x. c #84929F",
"c. c #899098",
"v. c #889198",
"b. c #8A9098",
"n. c #899299",
"m. c #8A919A",
"M. c #8B919A",
"N. c #89929A",
"B. c #88919D",
"V. c #8791A0",
"C. c #8D96A5",
"Z. c #8998A5",
"A. c #8A98A5",
"S. c #8A97A9",
"D. c #9AA6AB",
"F. c #C0D2DB",
"G. c #C1D2DB",
"H. c #C6D1DD",
"J. c #C5D3DD",
"K. c #D1D3D2",
"L. c #D8D6D7",
"P. c #DBD9DA",
"I. c #DFD9DB",
"U. c #DEDADB",
"Y. c #DEDCDD",
"T. c #DFE2E1",
"R. c #E7E7E7",
"E. c #E8E3E5",
"W. c #E9E9E9",
"Q. c #EBE9EA",
"!. c #EAEAEA",
"~. c #EEE9EB",
"^. c #ECEAEB",
"/. c #EAECEB",
"(. c #EDEBEC",
"). c #EFEAEC",
"_. c #EEEBEC",
"`. c #EFEAEE",
"'. c #E9EDEC",
"]. c #EAEDEC",
"[. c #EBEDEC",
"{. c #ECECEC",
"}. c gray93",
"|. c #EEECED",
" X c #ECEEED",
".X c #EFEDEE",
"XX c #EEEEEE",
"oX c #EFEFEF",
"OX c #F0EBED",
"+X c #F1ECEE",
"@X c #F0EDEE",
"#X c #F2ECEE",
"$X c #F0EEEF",
"%X c #F1EFF0",
"&X c #F1F1F1",
"*X c #F2F0F1",
"=X c #F3F1F2",
"-X c #F3F3F3",
";X c #F5F1F2",
":X c #F4F2F3",
">X c #F5F3F4",
",X c #F6F4F5",
"<X c #F8F4F5",
"1X c #F9F5F6",
/* pixels */
"                                                                                                                                ",
"                                                                                                                                ",
"                                                                                                                                ",
"                                                                                                                                ",
"                                                                                                                                ",
"                                                                                                                                ",
"                                                                                                                                ",
"                                                                                                                                ",
"                                                                                                                                ",
"                                                                                                                                ",
"                                                                                                                                ",
"                                                                                                                                ",
"                                                                                                                                ",
"                                                                                                                                ",
"                                                                                                                                ",
"                                            9 1 &                                                                               ",
"                                          0 G.Z.N.w                                                                             ",
"                                          0 G.C.N.u a a a a a a a 0                                                             ",
"                                          0 G.C.N.u @.` /./.<._ o ).;                                                           ",
"                                          0 G.C.N.u ..Y  X X<._ o ^.>                                                           ",
"                                          0 G.C.N.g 9.{ R.T.e.| = E.a                                                           ",
"                                          0 G.C.N.S ].].:.Y  X).1X! k a M M u , c v v 9 9 n                                     ",
"                                          0 G.C.N.S ].].:.Y  X X,X' b Y  X).=.! t.@X@X=.P @Xg                                   ",
"                                          0 G.C.N.a @.Y  X X<.G o  X0.Y  X).=.! t.@X@X=.P @Xg                                   ",
"                                          0 G.C.N.a @.Y  X X<.K o  X7. X| _ @X@XI.=.P ).).Y i                                   ",
"                                          0 G.C.N.D  X X@.` W. X=X_ m  X| _ @X@XI.| Y ).).Y i                                   ",
"                                          0 G.C.N.D ]. X@.` W. X=X_ k Y ).).>.Y u. X X@.Y ).i                                   ",
"                                          0 G.C.N.c s.a.K.K.d.p.i.L.3.Y ).).>.K u. X X@.Y ).k                                   ",
"                                          0 G.C.N.c @.Y  X X<.Y o ^.w.o =X:XP o w.%X:XG o >Xk                                   ",
"                                          0 G.C.N.e <.] ]./.7.[ o W.5. X@._ OXOXI.=._ ).@X_ g                                   ",
"                                          0 G.C.N.V  X X:.` W. X=XY m  X@._ OXOXI.=._ OXOX_ g                                   ",
"                                          0 G.C.N.V  X X..` W. X=X_ k Y ). X<.G r. X X=._ @Xg                                   ",
"                                          0 G.C.N.1 @.I  X X@.Y $ ).0.Y  X).<.K r. X X@._ @Xg                                   ",
"                                          0 B.V.N.1 ..Y  X X@.Y o ).8. X@._  X XP.@.Y  X XY k                                   ",
"                                          0 H.Z.N.u e e Z Z 1 1 g V k  X@.Y  X XY.@.Y  X XY k                                   ",
"                                          0 f.g.N.>                 - # 1X1XS % 4.=X>XN o =Xg                                   ",
"                                          0 D.h.N.>                 a Y  X X=.K t. X X=._ ).g                                   ",
"                                          0 H.S.N.>                 1 Y ). X=.K t. X X=._ ).g                                   ",
"                                          0 H.Z.N.>                   9 9 9 9 1 1 1 1 1 1 9                                     ",
"                                          0 H.Z.N.>                                                                             ",
"                                          0 H.Z.N.>                                                                             ",
"                                          0 H.Z.N.>                                                                             ",
"                                          0 H.Z.N.>                                                                             ",
"                                          0 z.z.N.>                                                                             ",
"                                          0 z.z.N.>                                                                             ",
"                                          0 z.z.N.>                                                                             ",
"                                          0 z.z.N.>                                                                             ",
"                                            i e *                                                                               ",
"                                                                                                                                ",
"                                                                                                                                ",
"                                                                                                                                ",
"                                                                                                                                ",
"                                                                                                                                ",
"                                                                                                                                ",
"                                                                                                                                ",
"                                                                                                                                ",
"                                                                                                                                ",
"                                                                                                                                ",
"                                                                                                                                ",
"                                                                                                                                ",
"                                                                                                                                ",
"                                                                                                                                ",
"                                                                                                                                ",
"                                                                                                                                "
};
