/* XPM */
static char *_2de2eda659845e9eb173aec21283d3cMl7jX6eerNS7Bh3z[] = {
/* columns rows colors chars-per-pixel */
"64 64 200 2 ",
"   c None",
".  c #3F4D6D",
"X  c #3E4D70",
"o  c #4E415D",
"O  c #53435C",
"+  c #7E4D5B",
"@  c #4C4262",
"#  c #424A67",
"$  c #414B6B",
"%  c #494E6F",
"&  c #45506C",
"*  c #5A5D6E",
"=  c #404F74",
"-  c #4A5572",
";  c #445372",
":  c #575E73",
">  c #5A5D73",
",  c #6D5A68",
"<  c #5B6175",
"1  c #5E6379",
"2  c #5D606E",
"3  c #636678",
"4  c #76787F",
"5  c #A71F26",
"6  c #A81E26",
"7  c #A71E2C",
"8  c #9B242B",
"9  c #9A252C",
"0  c #922F3E",
"q  c #A52226",
"w  c #A82127",
"e  c #A62129",
"r  c #A82128",
"t  c #A6282B",
"y  c #A22B34",
"u  c #A12E3D",
"i  c #B83A39",
"p  c #873744",
"a  c #8D2F40",
"s  c #B13F44",
"d  c #84525D",
"f  c #B14A53",
"g  c #9A6E7C",
"h  c #A0727F",
"j  c #C54C45",
"k  c #CB4E46",
"l  c #C64F4A",
"z  c #C94F49",
"x  c #C75046",
"c  c #C85046",
"v  c #C65149",
"b  c #C85048",
"n  c #D0564F",
"m  c #D7675E",
"M  c #DB665E",
"N  c #D6695E",
"B  c #D9695E",
"V  c #D7715D",
"C  c #D76660",
"Z  c #DB6762",
"A  c #D76961",
"S  c #D96861",
"D  c #DF7766",
"F  c #DD7B66",
"G  c #C37C7C",
"H  c #E27A6A",
"J  c #E37866",
"K  c #EA866F",
"L  c #E68B6D",
"P  c #E98A6E",
"I  c #E98C6F",
"U  c #E98E6E",
"Y  c #E98B6E",
"T  c #E7856D",
"R  c #E6916E",
"E  c #E3946D",
"W  c #E5946D",
"Q  c #E4926C",
"!  c #E9916E",
"~  c #E68A71",
"^  c #E68D71",
"/  c #E68C71",
"(  c #E88B70",
")  c #E98A71",
"_  c #E98D71",
"`  c #E98B71",
"'  c #E88770",
"]  c #E69071",
"[  c #EA9071",
"{  c #646C82",
"}  c #6C7281",
"|  c #797780",
" . c #767A84",
".. c #7B7D85",
"X. c #7C7E89",
"o. c #737E97",
"O. c #4A7AB6",
"+. c #4B7FC3",
"@. c #817E85",
"#. c #986D80",
"$. c #B77B86",
"%. c #7D8186",
"&. c #7C8089",
"*. c #79849A",
"=. c #4A81BE",
"-. c #4580BD",
";. c #7D8AA3",
":. c #4980C0",
">. c #4781C3",
",. c #5C9CD7",
"<. c #5FA0D6",
"1. c #5FA0D8",
"2. c #6FACDE",
"3. c #6DACE1",
"4. c #73ABE2",
"5. c #6DB3ED",
"6. c #7AB6E5",
"7. c #70B5ED",
"8. c #818089",
"9. c #828C9C",
"0. c #80879A",
"q. c #828DA5",
"w. c #8594AA",
"e. c #8D9AAC",
"r. c #8B95A8",
"t. c #919AAD",
"y. c #8E9DB1",
"u. c #979DB3",
"i. c #92A1B2",
"p. c #9EA3B3",
"a. c #9CABBC",
"s. c #9CA7B6",
"d. c #A3A1B3",
"f. c #A8A7B7",
"g. c #AFB5BB",
"h. c #B2B1BC",
"j. c #B28592",
"k. c #C7898B",
"l. c #CB8A94",
"z. c #C5949B",
"x. c #CA939B",
"c. c #C49497",
"v. c #D99D9E",
"b. c #DE9DA1",
"n. c #C5B3BC",
"m. c #D4B2B8",
"M. c #D5B1AD",
"N. c #E7B6AF",
"B. c #E5B7B5",
"V. c #95AFD5",
"C. c #96B5DB",
"Z. c #97B3D7",
"A. c #9FB0C2",
"S. c #A3B2C6",
"D. c #AABAC6",
"F. c #A8B7CB",
"G. c #AAB9CA",
"H. c #A7B8C9",
"J. c #B1BFCF",
"K. c #CBB5C2",
"L. c #BBC6DC",
"P. c #BACADC",
"I. c #B7C8D9",
"U. c #B0C1D4",
"Y. c #97CFF8",
"T. c #9AD2FA",
"R. c #BECDE0",
"E. c #C5CBD6",
"W. c #D5C7D7",
"Q. c #C8D2DD",
"!. c #D2C5CC",
"~. c #C6D5E6",
"^. c #CBD5E4",
"/. c #CAD8E7",
"(. c #C6D6E9",
"). c #C9D7EA",
"_. c #C6D9EA",
"`. c #C8D8E8",
"'. c #C7D9E6",
"]. c #D9DDEA",
"[. c #F2DFE7",
"{. c #DCE2EC",
"}. c #D8E0E5",
"|. c #DDE3F1",
" X c #D7E0F0",
".X c #E6E5ED",
"XX c #F3EAEC",
"oX c #F7E7E8",
"OX c #E5E6F2",
"+X c #E5EAF5",
"@X c #ECEDF5",
"#X c #ECEDF9",
"$X c #E7EBF7",
"%X c #F2EEF5",
"&X c #F2EEF9",
"*X c #EEF0F7",
"=X c #EEF1F9",
"-X c #F0F1F7",
";X c #F1F1FA",
":X c #E4CED1",
/* pixels */
"                                                                                                                                ",
"                                                                                                                                ",
"                                                                                                                                ",
"                                                                                                                                ",
"                                                                                                                                ",
"                                                                                                                                ",
"                                                                                                                                ",
"                  W W W W E W W W E W W W Q E E E Q E E E W E E E E W E W E W E R E W E E W E Q E E E W W W W                   ",
"              W L ~ ! B B / B B L A S Y A S ` S B Y N S L B A ` ' A S I B A ` S A L S N Y B A L A A I S S I L L R               ",
"            B L Y Z ` S S ` S S L B S ` B B Y S B ` S S L B Z D H Z B L Z S I S S I S C I Z S _ S S L S S ) Z Y L B             ",
"      V v l k L _ ` R L L R / / _ ~ ` _ / L L ` ~ ] Y ` R I ` [ L Y L [ Y / / L ` I I Y I L I L L L R L L R Y / Y k l x N       ",
"      k b b c L A S I S S ` S S L B S ` B B Y S B ` S S L B M Y Y Z B L Z Z I S S I S C I Z S _ S S L S S _ S A L k b b k       ",
"      k b b c L A S I S S ` S S L B S ` B B Y S B ` S S L B M D H Z B L Z Z I S S I S C I Z S _ S S L S S _ S A L k b b k       ",
"      k b b x L Y L R L L R L L L L ` I ` L _ ~ ~ I L L [ I ~ _ _ L I I ` / _ ~ ` I L L _ I L ! L L R L L R L L Y k b b k       ",
"      k b b c L A S I S S ` S S L B S ` B B I S B ` S S L B S K Y S B L Z S I S S I S C I Z S ` S S L S S _ S A L k b b k       ",
"      k b b c L A S I S S ` S S L B S ` B B Y S B ` S S L B Z H J Z B L Z S I S S I S C I Z S _ S S L S S _ S A L k b b k       ",
"      k b b x L ` L L L L L L L R L L ! L / L ~ Y _ ~ ` R Y Y _ _ Y ~ I ~ Y ] L ` ! ` L L L L R Y Y [ Y Y [ L ` Y k b b k       ",
"      k b b c L N B _ B B _ B B _ N B ` B B I S B _ S B L m S L ` S N / S S I B S I S m / N N / B S _ B B _ B A L k b b k       ",
"      k b b x L S S ` S S I S S ~ S S ` Z S ` S S ~ S Z / S S H H S B ` Z B L S S Y Z B / S S ~ S S L S S ` S S Y k b b k       ",
"      k b b x ~ ` ` I ` ` I ` ` [ ` ` I _ ~ I ` ` ] ` ` L L ` L I ` ` L ` ` L ` ` L Y Y [ ` ` L ` ` L ` ` I ` ` Y k b b k       ",
"      k b b c ~ S Z Y Z Z Y S Z ` m Z ` S S Y N M L B M _ Z Z ` ` N A L Z N / N A L Z B Y Z S ` Z Z ` Z Z Y Z S Y k b b k       ",
"      k b b x Y Z S L S S ~ S S ` B Z ` A S / S S / Z Z I S B H H B S L Z Z ~ S B / S m ` Z S ~ S S L S S ` S S Y k b b k       ",
"      k b b x L ` ` L ` ` I ` ` L L Y L _ ~ ] Y ~ / ` / L Y Y _ _ Y L R Y ` R ~ Y R L L I Y L L ` ` I ` ` I ` ` _ k b b k       ",
"      k b b c ` Z S / S S / S S ~ S S ` B Z ` S Z Y S Z I S S Y ` Z S ` Z Z L Z Z ) S Z ` S S ` S S ~ S S ` S Z ` k b b k       ",
"      k b b x Y S B ` B B L B B Y B S ` M S L Z Z Y Z Z ` S M J H Z S I M Z I S Z _ S N I S S _ B B L B B ` B S Y k b b k       ",
"      k b b x L ` L R L L _ L L / Y _ / L L R L Y L L Y ! ` Y _ _ ` ` L L Y L L L _ ~ L ! L Y L L L I L L L L ) Y k b b k       ",
"      k b b x ~ S S L S S ` S S ` S Z ` M S ` S Z ` S Z I S Z ` ' Z S ~ S S Y Z B ) Z M _ S S ) S S ~ S S ` S Z ` k b b k       ",
"      k b b b ` Z Z Y S S ` S S ` S Z ` Z Z ~ Z Z Y S Z L Z Z D D Z S / Z S ` Z Z _ Z M ` Z S ` S S ~ S S ` A Z ` k b b k       ",
"      k x b m _ T F Q L L L L L I L _ R L ` R / ` L ` / / Y ` L L _ Y I / ` I ` Y R / ` L I L L L L L L L ] H K Y M b c k       ",
"      k b N H K / Z ~ S S ~ S S L S S ` M Z _ Z S ` S Z _ N S ` ` S N _ Z B ~ S B ` S B _ S S ` S S I S S ` Z L K F V b k       ",
"      b J I B j V F L Z Z Y Z Z ~ S Z ) M M L Z Z ` Z Z ` Z Z I I Z B ` Z M ` M Z _ M M ) Z S _ Z Z Y Z Z L F V z N L F n       ",
"      J _ N b b j i Y L L _ L L L L L L L L _ L L [ L L L L L L _ L L I L L [ L L _ L _ L L L L L L I L L I i j b b N U J       ",
"      I m l b b j 5 q 5 5 5 5 5 5 5 5 5 5 5 5 5 5 5 5 5 5 7 9 9 9 9 e 5 5 5 5 5 5 5 5 5 5 6 6 5 5 5 5 6 6 q 5 j b b b B U       ",
"      B b b b z e r r r r r r r r r r r r r r r r r r 6 p h p.p.p.d.g p q r r r r r r r r r r r r r r r r r r e z b b b B       ",
"      l b b z t q r r r r r r r r r r r r e e e e e r p ].$X&X*X-X%X$X].p r e e e e e r r r r r r r r r r r r r q b b b k       ",
"      + l b j r r r r r r r r r r r r r e 8 8 8 8 8 a f.@XOXh.g.g.h.OX#Xf.0 8 8 8 8 8 r r r r r r r r r r r r e r j z l d       ",
"      > + b i r r r r r r r r r e r r r e g d.d.d.d.f.{.I.k.F F F F k.L.].f.d.d.d.d.#.8 r r r r r r r r r r r r r i b + >       ",
"      : I.O o o @ o o o o o o @ o o o o , @X=X-X-X-X#XI.G S B B B B A G P.$X-X-X-X*X@X, o o o o @ o o o o o o o o @ O U.:       ",
"      : OX^.9. . .> O.:.:.+.4 : O.:.=.O.3 Q.G.D.G.G.G.x.b k x.E.Q.x.j z l.G.G.G.G.G.^.3 =.=.:.O.: 4 +.:.:.O.: |  .9.^.OX:       ",
"      : OX#X^.G.r.{ O.:.:.:.e.{ O.:.=.=.q.P.f.).`.`.`.K.x.x.z.x x c.z.x.n.`.`.`.`.s.R.9.=.=.:.O.{ r.=.:.:.O.{ r.G.^.*X$X:       ",
"      u.@X/.#X&X~.q.3.5.5.:.(.;.4.5.5.>.> `.Q._.`.`.`.`.`./.$.r r $.`._.'./.`.`.`.Q.`.> O.5.5.4.*.~.:.5.5.3.;./.@X@X/.@Xp.      ",
"      u.@X@X^.@X_.q.2.5.5.>.(.q.4.5.5.=.> `.`.`.`.`.`.$.e 0 c.y y c.u 7 $.`.`.`.`.`.`.> =.7.5.4.;.).:.5.5.2.;.).@X^.@X@Xd.      ",
"      q.@X=X}./.P.i.V.C.C.C.P.s.V.C.C.C.3 G.`.`.`.`.`.n.t r f $.$.f e t n.`.`.`.`.`.G.3 Z.C.C.V.i.L.C.C.C.Z.i.P.^.].*X@Xr.      ",
"      < S.=X-X$X$X$X@X&X&X=X$X$X@X&X&X;X4 o.- - - - X.u.E.r 5 q q r r E.u. .- - - - o. .;X&X&X@X$X$X*X&X&X-X$X$X$X-X-XF.1       ",
"      : OXG.%X*X`./.`.`.`.`././.`.`.`./. .a.i.i.i.i.y.*.I.!.f y y s !.L.*.i.i.i.i.i.a.../.`.`./././.`.`.`.`./.(.=X@XD.$X:       ",
"      : OX#XQ.@X`.`.`.`.`.`.`.`.`.`.`./. .H.a.a.a.a.a.a.*.e.t.t.t.e.y.*.a.a.a.a.a.a.H...`.`.`.`.`.`.`.`.`.`.`.`.@X^.@XOX:       ",
"      : OX-X@X/.G.G.G.G.G.G.G.G.G.G.G.G...{.~.~.~.*.& % & $ . # # . $ ; % & &.~.~.~.{.@.&.&.&.&.&.&.&.&.&.&.&.X./.#X-XOX:       ",
"      < OX-X-X/.@XXXXXoX@X-X=XXXoXoX%X-X..|./.`.`.X.. -.=.=.=.=.=.=.=.=.-.. ..`.`.`.|...G.G.G.G.G.G.G.G.G.G.G.D./.*X-XOX<       ",
"      0.E.@X=X/.%XN.F N.M.*X&XB.H M.:X*X..|./.`.`.X.$ :.=.=.=.=.=.=.=.=.O.X ..`.`.`.|.8./.`.`.`.`.`.`.`.`.`.`././.&X-XE.0.      ",
"      q.+Xs.-X/.&Xv.x [.x.#X&Xb.c ).=X*X..|.`.`.`.X.. ,.,.,.,.,.,.,.,.,.,.. ..`.`.`.|.8./.`.`.`.`.`.`.`.`.`.`././.-Xs.+Xr.      ",
"      w.`.OXE./.@Xk.r y j..X%Xl.r W.XX&X@. X~.~.~.X.X <.1.1.1.1.1.1.1.1.1.. ..~.~.~.].X./.`.`.`.`.`.`.`.`.`.`.`./.E.$X~.w.      ",
"      w.`.~.^.G.-Xm.$.|.OXl.%Xm.$.$.m.=X..J.G.G.G...X <.1.1.1.1.1.1.1.1.1..  .G.G.G.U...`.`.`.`.`.`.`.`.`.`.`._.G.Q.~.`.w.      ",
"      w.`.`./.OX%.@.@.&.%.&.8.&.&...%.@...|./.`.`.X.X <.1.1.1.1.1.1.1.1.1.. ..`.`./.{.%.&.....................X.$X/.`.`.w.      ",
"      2 L.`.`._.~.~.~.~.~.~.~.~.~.~.~.~. .i.i.i.i. .X <.1.1.1.1.1.1.1.1.1..  .i.i.i.i. .~.(.~.~.~.~.~.~.~.~.~.~._.`._.L.>       ",
"        < e./.`.G.G.G.G.G.G.G.G.G.G.G.D...|.~.~.(.X.= 6.6.6.6.6.6.6.6.6.6.= ..(.~.~.|.8.D.F.G.G.G.G.G.G.G.G.G.G.`./.y.<         ",
"          } r.'.F.F.F.F.F.F.F.F.F.F.H.D...{.`.`.).X.= T.Y.Y.Y.Y.Y.Y.Y.Y.T.; %.`.`._.{...H.F.F.F.F.F.F.F.F.F.F.F.~.e.}           ",
"            > L.A.S.S.S.S.S.S.S.S.S.S.S.X.P.F.G.F...# # # # # # # # # # # #  .F.G.F.I.X.S.S.S.S.S.S.S.S.S.S.S.S.L.>             ",
"              < : > > > > > > > > > > > 1 ;.*.*.*.1 * | | | | | | | | | | > 1 *.*.*.;.< < > > > > > > > > > > * *               ",
"                                                                                                                                ",
"                                                                                                                                ",
"                                                                                                                                ",
"                                                                                                                                ",
"                                                                                                                                ",
"                                                                                                                                "
};
