/* XPM */
static char *_e4da303f8264153842ced1bfa19f35dJMZ6cDMIZZSSzaaP[] = {
/* columns rows colors chars-per-pixel */
"64 64 32 1 ",
"  c None",
". c #701000",
"X c #482818",
"o c #784800",
"O c #404048",
"+ c #901000",
"@ c #A01000",
"# c #A82000",
"$ c #A03010",
"% c #C80800",
"& c #C02800",
"* c #D82808",
"= c #E83008",
"- c #984828",
"; c #A06038",
": c #C05008",
"> c #E04008",
", c #F04008",
"< c #F84008",
"1 c #F85808",
"2 c #F84810",
"3 c #F04820",
"4 c #C87030",
"5 c #B08808",
"6 c #F09800",
"7 c #F0C000",
"8 c #F8F000",
"9 c #D8C820",
"0 c #908080",
"q c #E8C0B0",
"w c #B8D0D0",
"e c #F8F8F8",
/* pixels */
"                                                                ",
"                                                                ",
"                                                                ",
"                                                                ",
"                                                                ",
"                                                                ",
"                                                                ",
"                                                                ",
"                                                                ",
"                                                                ",
"                      22                22                      ",
"                      121222,,,,,,,,,<12212                     ",
"                     ><,,>,<,,,<,,<,,,,,,,>                     ",
"                     ====***=**=*=**=***==,                     ",
"                     **>12,*==========21>&<                     ",
"                     *o>11<<<<<<<<<<<<212o:                     ",
"                    &6o212<<<<<<<<<<<<212o6:                    ",
"                    >6$11<*&#&.$$.&$&=<11$O4                    ",
"                    65&11*O0w4wqqw4000$111o61                   ",
"                   67o21<Xeee4ewqeqqee0<11$76                   ",
"                   75&11=0eqq4wq4w4qee0$112o7                   ",
"                   8o,13,*<*6-$141>>2<*,>12.87                  ",
"                  77X*1;2<2;8998--6-32><;11X57                  ",
"                  75o11;<,2:9999--4-32<<;31o58                  ",
"                  88523-1<2-8959-46-32,<-:1$88                  ",
"                  88o1>0<<2:9887X-6-:2,<4-1#88                  ",
"                  88o1;q<<2<2>>>,2>$22<<q01&58                  ",
"                  88$10q**>>>>>>>>>>>>**301=58                  ",
"                  89#10;X#+#&&&&&&&#&&$;$03<58                  ",
"                  89&1;-ewq000000000qeee0;3>59                  ",
"                  99*1-0eeeeeeeeeeeeeeeeq+3>87                  ",
"                  68$1#weee0XXweeeOXOeeew+>&55                  ",
"                   9$2#weee0XOeeee0XOeeee+2*55                  ",
"                   5#2&0qweeweeeeeeewewq0#2*5                   ",
"                   5,2**&&##$$;;;;$$##&&*=><5                   ",
"                   5<221111111111<11111111><:                   ",
"                   #<2>111112,%%%%%*<21111>2&                   ",
"                   &22>1112%%%%%&%&*:67621:1*                   ",
"                   *12>1666%%%>>7>86667122>1>                   ",
"                   =12*2166867767676667712>1<                   ",
"                   =22&1<76677666>7888612>>1<                   ",
"                   *2,&2<8766667887:&%%<1:,2,                   ",
"                   *2,&2<7*:8886&%%%%%=11&<2,                   ",
"                   *,,$02>,%&&%%%%%%%*210-<,<                   ",
"                   &=,*$<<22*%@@@@@&>21<&&<,=                   ",
"                   &*=$$#<<<<,<,=,,<<<<&o$,**                   ",
"                   #&&-80+>0,,,,,,,<44+;84&&&                   ",
"                   +#&+9e0;$$&&&&&$&&-0w9$###                   ",
"                   +##++-O0>,,>>,>>,>0OX++##+                   ",
"                    #++++++###&#&&###++++++#+                   ",
"                    ++++++++++++++++++++++++                    ",
"                     .+++++##########++++++                     ",
"                      .++++++++++++++++++.                      ",
"                         .....++++.....                         ",
"                                                                ",
"                                                                ",
"                                                                ",
"                                                                ",
"                                                                ",
"                                                                ",
"                                                                ",
"                                                                ",
"                                                                ",
"                                                                "
};
