/* XPM */
static char *_e8e98c8c9d2402bdcae684f08a51012rb8K3K0L0uZLutDR[] = {
/* columns rows colors chars-per-pixel */
"64 64 10 1 ",
"  c None",
". c black",
"X c gray19",
"o c #705038",
"O c #903818",
"+ c #987038",
"@ c #C85838",
"# c #C8A040",
"$ c #F8D050",
"% c #E8E8F8",
/* pixels */
"                                                                ",
"                                                                ",
"                                                                ",
"                                                                ",
"                                                                ",
"                                                                ",
"                                                                ",
"                                                                ",
"                                                                ",
"                                                                ",
"                                                                ",
"                                                                ",
"                                                                ",
"                                                                ",
"                                                                ",
"                                                                ",
"                                                                ",
"                                                                ",
"                                                                ",
"                                                                ",
"                                                                ",
"                                                                ",
"                                                                ",
"                                                                ",
"                ......                    ......                ",
"                ......                    ......                ",
"                ..XXXX..                ..XXXX..                ",
"                ..XXXX..                ..XXXX..                ",
"                ..XXXX$$..            ..$$XXXX..                ",
"                ..XXXX$$..            ..$$XXXX..                ",
"                  ..$$$$$$..oooooooo..$$$$$$..                  ",
"                  ..$$$$$$..oooooooo..$$$$$$..                  ",
"                  ..##$$$$++##$$$$##++$$$$##..                  ",
"                  ..##$$$$++##$$$$##++$$$$##..                  ",
"                    ..##$$$$$$$$$$$$$$$$$$..                    ",
"                    ..##$$$$$$$$$$$$$$$$$$..                    ",
"                      XX##$$$$$$$$$$$$##XX                      ",
"                      XX##$$$$$$$$$$$$##XX                      ",
"                    ..$$$$$$$$$$$$$$$$$$$$..                    ",
"                    ..$$$$$$$$$$$$$$$$$$$$..                    ",
"                XXXX..$$$$%%$$$$$$$$%%$$$$..                    ",
"                XXXX..$$$$%%$$$$$$$$%%$$$$..                    ",
"                XX++..@@$$..$$$$$$$$..$$@@..                    ",
"                XX++..@@$$..$$$$$$$$..$$@@..                    ",
"                XX++++OO@@$$$$++++$$$$@@OO                      ",
"                XX++++OO@@$$$$++++$$$$@@OO                      ",
"                XX++++XX..XX########XX..XX                      ",
"                XX++++XX..XX########XX..XX                      ",
"                  XX++oo##ooXXXXXXXXoo##oooo                    ",
"                  XX++oo##ooXXXXXXXXoo##oooo                    ",
"                    oo..##$$oo####oo$$##..oo                    ",
"                    oo..##$$oo####oo$$##..oo                    ",
"                    oo##....########....##oo                    ",
"                    oo##....########....##oo                    ",
"                      ..################oo                      ",
"                      ..################oo                      ",
"                        ....XXXXXXXX##++..                      ",
"                        ....XXXXXXXX##++..                      ",
"                                    ....                        ",
"                                    ....                        ",
"                                                                ",
"                                                                ",
"                                                                ",
"                                                                "
};
