/* XPM */
static char *c43c9260b97e435b8df7c4d5d934570eM8ewNusukSYvyIIY[] = {
/* columns rows colors chars-per-pixel */
"64 64 50 1 ",
"  c #1B1B1B",
". c #1D1F1E",
"X c gray12",
"o c #1E201F",
"O c #1F2121",
"+ c #232323",
"@ c #212423",
"# c #212325",
"$ c #222524",
"% c gray14",
"& c #242625",
"* c #272A27",
"= c #262828",
"- c #282828",
"; c gray16",
": c #292C2B",
"> c #2B2D2C",
", c #2C2C2C",
"< c #2F2F2F",
"1 c #2D302D",
"2 c #2D2F31",
"3 c #2E3130",
"4 c gray19",
"5 c #313131",
"6 c #353233",
"7 c #323433",
"8 c #333534",
"9 c #343434",
"0 c #343636",
"q c #373737",
"w c #353837",
"e c #393937",
"r c #363938",
"t c gray22",
"y c #3A3A3A",
"u c gray23",
"i c #3A3C3B",
"p c #3B3D3D",
"a c gray24",
"s c #3D403F",
"d c #3E4140",
"f c gray25",
"g c #404241",
"h c #424443",
"j c #434545",
"k c #464646",
"l c #454847",
"z c #484848",
"x c #4C4F4E",
"c c #535353",
/* pixels */
"<;5;&.<&53>><i<..>5+;.5+r3380+;;;<;;<.&+>3w@@&<++;3;+.;&<;;;;&&<",
"r7ir.70wrrr><5=883a&0&rw00088&yyr5<5;=0008rr5<=yyw73<<&<yyyy&500",
";&1@<;<<;;=5$@=&$=++.<8&&@$&=+y0::==@y;;&>&&;@=<<;;+00<;&0;<505a",
"5=<+5;oO<;;.;<8<:3g<=<;&5;;35<&&$<y&<;;;0.5;;7+@+;;+&5;;;5;5<5+=",
".wy55<<Ow;0y05535&a;0<&$y<<805@++5a;y;;;y500wi+++05&5.5555;y55.;",
"5+3&3=+&335:>:+ay3;;;;yw;<<&O+555;;+0+;+<5;;<+&55+<;;d&000&$&;55",
"55yyg=&<<<<>;;005<0003..0<5<gy555;55a<;;;5;<<5050555<a<<5<55aa5;",
"yo;.<<.a...0O:5.>>=..&&&0<3>p;+55+;.5++55+<<<;7$:0.3&>++++<<5&0+",
"a+<.00;&005yr0+y>;<.;0yy55<7p;5aa;;.5a5a+a55pg@===0.3r0055<<5555",
"&&&&<5&&<;5555&...;;500<O33O@<.&+.<:><..+;<<<=&gg+;<<355; 5<55+y",
"y05+<;+5555<<;5zz.5<<<<;y533@<<gg+8:><00<5+&<<+gg&0.0.55;<555;;y",
"<;<+a<+5&55<<&5000+<++++&5:&r..<<+&.j3.;..+&<<+000.g.<&&5;5y5;;y",
";55@g<+y&<<<<5.00w+55<<y&0:$w<<<<5;+k3y&g5g&<++55;5;;&50.c55+y+5",
"&&05&<++yyy005500+<;&ag+30<7ry&<<.6+<=;&;a0++0000&555z+&<;;5<;<<",
"&ry;;y+++&&:;.>==Os;.p0++++<r++++5y;;5+++:.0a<<<;+5;;y;&+.+<;;<&",
"80;<<<<+&+<+@yo008s;;;<;<05>;;&55<<<<5;55>055<+<rrr+&;;;+05....0",
"<&&5wr@+;;5<<<<<;&;;&&&+50&O.++<<.;..<&+5>a+++&;;&+5<;&&000;.y55",
"3;&<<<;<7;r:;50==&=;a:5&5&<<<yy005;50k<&5&<<505555<0ay++0++&<<<;",
"3>&<<<+;<=03;<5;><<<a>5&0.+&.<&+++0;;<&&5&;&&&;055555<.;;;;0&5;y",
"5&55<k&&+500+5$hr&80&0.a.y000<+yy<y<;z355ya&++&y<5500z.<<550+;;a",
"<a&5++&&&;;=;;&&&;;&&+0+0<;55;+5;;+5;.+;;;;<<055;;<+&;<5;55&<5&5",
";g&5&k+55y;0+8&hh0s;a<a005555++5;k55<;5+;<+zy;+yag+k&0&5+<;;&&;5",
"<<&5&;5555+35855<;8+;;;;00&5555555.0gg&;;<;<<<;<<;5k.;&+;5+<<000",
".<+5;k...<0<<05+7885;;;&0+;0005.&&;<;+;++<+00<<<<<;0+y0+<<5<&y;&",
"<<y5&;<555+<<&;kl57&;+5y;<<5<55555<<<55yy+055&<ay<.++y555y;55&&0",
".; <..<<+;8+;3&+++5;+++&+<;55&<<..++++.yyy5&5;.50+;;+..00y+.+<++",
"5a&5<r&;;5+;===w:;+&5008575..5+580;;yy&;&&0&<+<kz0<+;55;;<5555;5",
"y;3a&r&&&yw0778;;O;73<:05r&55=:05700&;;;<<<yy00<<;;5;5<.;0000&5&",
";;;:+@:&&&:a+;&33:<>:33<<<&&&;<0;;;<&;;<;;+&&.+y<<<<;5<y+<&;+&;<",
";;;555:;:8==;;&ii===&rr;&;55503<;;;;yyy;ay+&+55;;;g<0<;&5y&yyy&;",
"5aa5&5&@@5=rrr3wr<<rr33+88..7w5<<<kg;&&&&;;<;55kkg&&<<<;;;<y0y55",
"++++&&...++++++O+O++<=@+$&<:>+++++++;+..........+;;+++++&&+&;+++",
"ypa<0Orrwgw7<333<ry7<:>arr3375550<55x0<5yyggy+0555y;5555agg53<<5",
">><@;5>>>7<>>3555587&<w5333573550w555&;555yy<;;555a;5+<<y78333;5",
"<<>o<<<:.7;=&<55553+<<a+&=<<++57>>35<&;;;;;<.r;;;;;<&05<+<+&$&05",
"+<7&+<>$y0;g5553<w05<<.<0w<yy5550.+.y00.00;<;5;555<<&<;;0<<50w05",
"+<3;y<<.5&@p<5+++y05.+a<0w+yy5550+..y00&00;555;5.yaay5;;y5<<<.*;",
"y&.+w;<5;k<<;;;y5..00y+<><;=&&$;;:+.;&;;55<<<+;+5+.+.&;;&y&<<.;;",
"0;yrr5&&;;&;;;;y0<<a;;;5<555&0033<Oog00+ya+0+;+5y&yaa+++055;;;55",
"5;+&&&&.0;&yy+5.0;;;;;+0+++085&rr075;&+<5555500;;;;;&&;0+5.gyy<+",
"5<<.0yyy;0;5y0+y.50.<a<+;ya+;5&0&8335<<+&<=gy<O50&&.g5&<5y0<<<;;",
";+;5;<<;5;;5+;<+0;;;;;;;;+&<<<&@&&==+;<.+;&y3&&85;;;.+..&0&<<<;;",
"00;5<++<55<;<+;ka;;;<&;00g+53<&iy&<<+55<<5<.&530.0;5 788<<<&$@38",
"<;y;<55+<5&;05+yy;<&y55<;55><+5y<y&+g55;5h<y5<&05<<;<Osp+&+=;.=3",
"50&&<&&55;&y&++a+;;5;&&y&<;+05.aa;&&5ya;<++<;&:.5<3+r><<5y@;::<<",
"<&00&zz++7+yy<<yy<;y+<&<<5<5y5<;;a0;5&&&+0&50a>0&<<5@70y&3oyyy<5",
"<5y<;zz++5@ww<<<+55y+5&&;&&0y<<&;ga05&&;&a&5wr&&+0yy+&&&+3O53<+;",
"0ey;;:;;;;=;;++;5++.+5;&+;;&&&+&&+&&+88++w+53<5<<555z&&=i<@;:..y",
";&&=y<:8$rw0=<<yy<<000;@78a++055555;g<<;;085;.&<&++<@@$@<70&=&&5",
";yy;;@.+<==.5<<;;++055+3<&&0<5&5@&;;&<<;;00550z75<;;5005<<5&;yyy",
";;5;&l.&3@y.5<<&&++5;<+3<..y>5&5+&&<.<<;+....;;35++;;$@@3+@@<&&&",
";<5+<g&&<30r&&&0a85+5o&>+a0&.<;gg+&;a;&y+77a<+;=;55+a3<>>yyy.<<y",
"00a;>55;0w;=<>@y0&&g+a&r5;;<<<<<<55;;0;;aa+<5y&&&<y;;ho>>;;;;..y",
"<&+&...&8w53&:+w0<5a+y&a+a+a<;;g<<<&&;;;;;+5;;+gg<y+ 788<<<&$@38",
"y&y+g;;;5805&:+00+&;+&@&;+;;+y+55&&g;a+;+;55<&<<<&;&<Osp+&+=;.=3",
"<5x<<;05;<;a;0y+;<5y<w+&&&<;+5+555<<&<&;;55<88<33555r><<5y@;::<<",
"g+5+0+++;<;&;<&+;00y&&:&<y8<&&;;+<;;+;&;;y5&0i375yya@70y&3oyyy<5",
"<&<&wwy;;&<0<5&55y0&&&<<<05a5y+aa..<;g&;<0.y&&+ya&y++&&&+3O53<+;",
"r=y+O@6;;&.;+++<;&&&&0;;+0&;+5++;<<<+a&;++++&;+&&&<&z&&=i<@;:..y",
"=&<+0+5+;<+a;y<<&y&5&&;<<#2<555;;&++5&&&5yyy@@ry0+;+@@$@<70&=&&5",
"r>y=5r85355+;7+00<<<5y;<+00y.5;aa<<y;y50+555;==@55555005<<5&;yyy",
"8Oy=O;;@&+=;&O+00;<&.5;++<55+++;;;;+&+;;+5<+50:aa;5+;$@@3+@@<&&&",
"aO3&w;:+0r0&<5&5555<;g;++5y5&<;0y<55<y;;&5<a00>gy==@a3<>>yyy.<<y",
";;y=0==87;rr88&&&yy<;3$55;;0000;++<<<5&&<;;y55<&=;a=;ho>>;;;;..y"
};
