/* XPM */
static char *_dc7e25c69544e20fcafd9e45c62c3558ViOVAqEC3HKy5OO[] = {
/* columns rows colors chars-per-pixel */
"64 64 31 1 ",
"  c None",
". c #701000",
"X c #482818",
"o c #784800",
"O c #404048",
"+ c #901000",
"@ c #A82000",
"# c #A03010",
"$ c #C80800",
"% c #C02800",
"& c #D82808",
"* c #E83008",
"= c #984828",
"- c #A06038",
"; c #C05008",
": c #E04008",
"> c #F04008",
", c #F84008",
"< c #F85808",
"1 c #F84810",
"2 c #F04820",
"3 c #C87030",
"4 c #B08808",
"5 c #F09800",
"6 c #F0C000",
"7 c #F8F000",
"8 c #D8C820",
"9 c #908080",
"0 c #E8C0B0",
"q c #B8D0D0",
"w c #F8F8F8",
/* pixels */
"                                                                ",
"                                                                ",
"                                                                ",
"                                                                ",
"                                                                ",
"                                                                ",
"                                                                ",
"                                                                ",
"                                                                ",
"                                                                ",
"                                                                ",
"                                                                ",
"                                                                ",
"                                                                ",
"                                                                ",
"                                                                ",
"                            $$$$$&;;                            ",
"                     >&<<,&:55666677567<1:&                     ",
"                    <<><5666565556656555<,><                    ",
"                   *<:><166535;;:$$$$;5<<<:<,                   ",
"                   &1::<<65:$$$$$$$$&1<<<<:<>                   ",
"                   &1::<<>,1o3;=388821,1<<:<,                   ",
"                   &1>>2>>12X55=884742>>11:1&                   ",
"                   &>,#-,>12=3==4488=2,>3=>>&                   ",
"                   %:,90,,12X5=O8788=2,,09:>&                   ",
"                   %&>9w,>12X55484-742>,0q&>&                   ",
"                   @&,90,,12233333=4=1>,0q::%                   ",
"                   o#,93,,,2222222222,,,:9::o                   ",
"                   43<#91+XX==OO=O==XX.,9=<,o                   ",
"                   8;<#q19www3w00w00ww9@0=<%o                   ",
"                   8;1:929www3w03w00wwq&q;<#8                   ",
"                   7o:<=;9www3w03w00wwq%-<1X7                   ",
"                   8.><1*=www3w03w00ww9&1<,X8                   ",
"                  674+<<,#www3w00w00ww-*1<#o77                  ",
"                  666o:<<&qww3w00w00ww#,<1.566                  ",
"                  665oo<<,*333q93q33-;,<<%o556                  ",
"                  55=OX<<<,,,******,,,1<<#5555                  ",
"                  55-;+@#@&&:***:****&@#@+;555                  ",
"                  <55#..=...=...=......=...55<                  ",
"                  <5;.++#@+@=+++#++##++=++.#5<                  ",
"                   <@+;==..+#++@#++##..##o+@;<                  ",
"                   >+o6=22XX++++++++.O22233+%<                  ",
"                   %+o8#=#X.++++++++.O#=#44.@                   ",
"                   +&%%%%%%&&&&&%&&&%%%%%%%&@                   ",
"                   O@;;::;;::;::;;;;;;;;;;3%.                   ",
"                   O.;677777777776777777776.O                   ",
"                   OOO.#  ############  ##OOO                   ",
"                                                                ",
"                                                                ",
"                                                                ",
"                                                                ",
"                                                                ",
"                                                                ",
"                                                                ",
"                                                                ",
"                                                                ",
"                                                                ",
"                                                                ",
"                                                                ",
"                                                                ",
"                                                                ",
"                                                                ",
"                                                                ",
"                                                                "
};
