/* XPM */
static char *_93c5a3de80f4887adbbd9859b91ee5aOoBox0SJToxZ74G8[] = {
/* columns rows colors chars-per-pixel */
"64 64 7 1 ",
"  c None",
". c black",
"X c gray19",
"o c #705038",
"O c #987038",
"+ c #C8A040",
"@ c #F8D050",
/* pixels */
"                                                                ",
"                                                                ",
"                                                                ",
"                                                                ",
"                                                                ",
"                                                                ",
"                                                                ",
"                                                                ",
"                                                                ",
"                                                                ",
"                                                                ",
"                                                                ",
"                                                                ",
"                                                                ",
"                                                                ",
"                                                                ",
"                                                                ",
"                                                                ",
"                                                                ",
"                                                                ",
"                                                                ",
"                                                                ",
"                                                                ",
"                                                                ",
"                                                                ",
"                                                                ",
"                                                                ",
"                                                                ",
"                  ......                ......                  ",
"                  ......                ......                  ",
"                  ..XXXX..  OOOOOOOO  ..XXXX..                  ",
"                  ..XXXX..  OOOOOOOO  ..XXXX..                  ",
"                  ..XXXX@@..@@@@@@@@..@@XXXX..                  ",
"                  ..XXXX@@..@@@@@@@@..@@XXXX..                  ",
"                    ..@@@@@@OO@@@@OO@@@@@@..                    ",
"                    ..@@@@@@OO@@@@OO@@@@@@..                    ",
"                    ..++@@@@@@@@@@@@@@@@++..                    ",
"                    ..++@@@@@@@@@@@@@@@@++..                    ",
"                    OO..++@@@@@@@@@@@@++..OO                    ",
"                    OO..++@@@@@@@@@@@@++..OO                    ",
"                    OO@@@@@@@@@@@@@@@@..........                ",
"                    OO@@@@@@@@@@@@@@@@..........                ",
"                    ..@@@@@@@@@@@@@@..@@@@@@@@..                ",
"                    ..@@@@@@@@@@@@@@..@@@@@@@@..                ",
"                      oo@@@@@@@@@@@@..++++++++..                ",
"                      oo@@@@@@@@@@@@..++++++++..                ",
"                      oo@@OOOO@@OO..oo++++++++..                ",
"                      oo@@OOOO@@OO..oo++++++++..                ",
"                    oo++++@@OOOO..++++++......                  ",
"                    oo++++@@OOOO..++++++......                  ",
"                    oo++++OOOO++..++....oo                      ",
"                    oo++++OOOO++..++....oo                      ",
"                    ..++++++oo..OOOO..OO..                      ",
"                    ..++++++oo..OOOO..OO..                      ",
"                      ..++++++..OO..OOOO..                      ",
"                      ..++++++..OO..OOOO..                      ",
"                        ....XXXXXX++++..                        ",
"                        ....XXXXXX++++..                        ",
"                                  ....                          ",
"                                  ....                          ",
"                                                                ",
"                                                                ",
"                                                                ",
"                                                                "
};
