/* XPM */
static char *_0d23516e60b426fd8ec3d5c01cd69a9pw3yHo8lzbtNtvoP[] = {
/* columns rows colors chars-per-pixel */
"64 64 9 1 ",
"  c None",
". c black",
"X c gray19",
"o c #705038",
"O c #987038",
"+ c #C85838",
"@ c #C8A040",
"# c #F8D050",
"$ c #E8E8F8",
/* pixels */
"                                                                ",
"                                                                ",
"                                                                ",
"                                                                ",
"                                                                ",
"                                                                ",
"                                                                ",
"                                                                ",
"                                                                ",
"                                                                ",
"                                                                ",
"                                                                ",
"                                                                ",
"                                                                ",
"                                                                ",
"                                                                ",
"                                                                ",
"                                                                ",
"                                                                ",
"                                                                ",
"                                                                ",
"                                                                ",
"                                                                ",
"                                                                ",
"                                                                ",
"                                                                ",
"                                                                ",
"                               ........                         ",
"                               ........                         ",
"                           ....XXXXXX..                         ",
"                           ....XXXXXX..                         ",
"                         ..@@OOXXXX..                           ",
"                         ..@@OOXXXX..                           ",
"                     XX..@@@@@@..........                       ",
"                     XX..@@@@@@..........                       ",
"                 ooOO######....##OOXXXX..                       ",
"                 ooOO######....##OOXXXX..                       ",
"               OO########OO########XX..                         ",
"               OO########OO########XX..                         ",
"             oo##################....                           ",
"             oo##################....                           ",
"             oo##############OO..XX    XXXXXX..                 ",
"             oo##############OO..XX    XXXXXX..                 ",
"             XX####$$########@@@@ooXX  XX@@@@..                 ",
"             XX####$$########@@@@ooXX  XX@@@@..                 ",
"             XX@@##..######@@@@oooo@@XX@@@@@@..                 ",
"             XX@@##..######@@@@oooo@@XX@@@@@@..                 ",
"               XX@@##++++@@@@@@@@@@ooXX@@@@@@..                 ",
"               XX@@##++++@@@@@@@@@@ooXX@@@@@@..                 ",
"                 ....++++@@@@@@@@ooooXX@@..XX                   ",
"                 ....++++@@@@@@@@ooooXX@@..XX                   ",
"                     ....oo@@@@@@@@@@XXOO..                     ",
"                     ....oo@@@@@@@@@@XXOO..                     ",
"                     ooOO@@@@@@@@@@@@OO....                     ",
"                     ooOO@@@@@@@@@@@@OO....                     ",
"                       oooo@@@@@@@@XXOO..                       ",
"                       oooo@@@@@@@@XXOO..                       ",
"                       ..@@@@oo..ooOO..                         ",
"                       ..@@@@oo..ooOO..                         ",
"                         ....oo                                 ",
"                         ....oo                                 ",
"                                                                ",
"                                                                ",
"                                                                "
};
