/* XPM */
static char *_b00fdb7711a426aeb7a59d0eb9d843emAf3xiuFJ2BZHWAE[] = {
/* columns rows colors chars-per-pixel */
"64 64 32 1 ",
"  c None",
". c #701000",
"X c #482818",
"o c #784800",
"O c #404048",
"+ c #901000",
"@ c #A01000",
"# c #A82000",
"$ c #A03010",
"% c #C80800",
"& c #C02800",
"* c #D82808",
"= c #E83008",
"- c #984828",
"; c #A06038",
": c #C05008",
"> c #E04008",
", c #F04008",
"< c #F84008",
"1 c #F85808",
"2 c #F84810",
"3 c #F04820",
"4 c #C87030",
"5 c #B08808",
"6 c #F09800",
"7 c #F0C000",
"8 c #F8F000",
"9 c #D8C820",
"0 c #908080",
"q c #E8C0B0",
"w c #B8D0D0",
"e c #F8F8F8",
/* pixels */
"                                                                ",
"                                                                ",
"                                                                ",
"                                                                ",
"                                                                ",
"                                                                ",
"                                                                ",
"                                                                ",
"                                                                ",
"                                                                ",
"                                                                ",
"                                                                ",
"                                                                ",
"                                                                ",
"                                                                ",
"                                                                ",
"                                                                ",
"                                                                ",
"                                6988888877                      ",
"               ++#&&***==*&#55598999888857876                   ",
"             +###&*=,222112<<,#$$*&#$oo5oXo576>&                ",
"            .++#&&=,,,,222222222111111121*,&o566**=>            ",
"           .+++++-$*$&&&*>>>2*&##-;00;>311112&$oo*=<12          ",
"           +++++98$$022121111*0ww0-;qq0-;;311112>>=,22          ",
"           ++++-e0#<2<<<16111&qeeeeX*<<1<2,=<11111=,1           ",
"          .++++O0+<<>78766111&weeew#*<<<,<*0X*<212*>2           ",
"          .++++0;><2,*7666211#eeeeq+>22222<eeO*<<,*,2           ",
"          .+#+#>$0<2%:668%%11#e00e0#><:-:;*qe0&<<**<2           ",
"          .+#+#,$,<*&8676%%21$wXXe0&>298986qew#<<==,,           ",
"          .+#+#,&,,%&8677%%,1$eOXe0&>>8999-444&<<=*,,           ",
"          ++#+&>&,<@%8667>%%1;eewe0&>>8599$wew.<<=*,,           ",
"          ++#+#>&,,@%6766>%%1;eeee0&>>79981qwq$<<==<,           ",
"          ++#+&,&,=@%&8677&%1;eeee0&>,X---44qq$<<=*,,           ",
"          ++#+&>&,,@%%8>6>%%<;eeee0&>2-4--1wew.<<==,,           ",
"          .+#+#>$,,@%%7778&%1$e0Oe0&>>6646>4q4&<<=*<,           ",
"          .+#+#,&<<&%%:866**1$eXXe0#>$---->qq0$<<=*,,           ",
"          .+#+#>&4<>%%&866:<1#wOOeq&>2:3332ee0&<<==,,           ",
"          .++++0-4<2*%%866621#eeeee&>22222<ee0=<<=*,<           ",
"          .++++O0+<12=%677711&weeee$*<,,<>*00$<222*,1           ",
"           ++++Xw;&<11<171611&qeeee;*<<<<<,$<11111*,2           ",
"           +++++98o&011212211*0ewq0$3q4-;;>111122>=,22          ",
"           .++++$4$&-&:>22111=#+++;000-:311111$oo&=,12          ",
"            +++##&,<<<,>>>:>>>22>33311111122$oO6:<,>2           ",
"             +###&*,,2211112<<**&>><=&#$oX.o764:                ",
"              ++#&*=<,,<<>*&:55558555588558761                  ",
"                               557988888877                     ",
"                                                                ",
"                                                                ",
"                                                                ",
"                                                                ",
"                                                                ",
"                                                                ",
"                                                                ",
"                                                                ",
"                                                                ",
"                                                                ",
"                                                                ",
"                                                                ",
"                                                                ",
"                                                                ",
"                                                                ",
"                                                                ",
"                                                                ",
"                                                                "
};
