/* XPM */
static char *_20c0de18a2e4d88ba41d95370287c309ul46MeogiKIAj0i[] = {
/* columns rows colors chars-per-pixel */
"64 64 9 1 ",
"  c None",
". c black",
"X c gray19",
"o c #705038",
"O c #987038",
"+ c #C85838",
"@ c #C8A040",
"# c #F8D050",
"$ c #E8E8F8",
/* pixels */
"                                                                ",
"                                                                ",
"                                                                ",
"                                                                ",
"                                                                ",
"                                                                ",
"                                                                ",
"                                                                ",
"                                                                ",
"                                                                ",
"                                                                ",
"                                                                ",
"                                                                ",
"                                                                ",
"                                                                ",
"                                                                ",
"                                                                ",
"                                                                ",
"                                                                ",
"                                                                ",
"                                                                ",
"                                                                ",
"                                                                ",
"                                                                ",
"                                                                ",
"                                                                ",
"                                                                ",
"                         ........                               ",
"                         ........                               ",
"                         ..XXXXXX....                           ",
"                         ..XXXXXX....                           ",
"                           ..XXXXOO@@..                         ",
"                           ..XXXXOO@@..                         ",
"                       ..........@@@@@@..XX                     ",
"                       ..........@@@@@@..XX                     ",
"                       ..XXXXOO##....######OOoo                 ",
"                       ..XXXXOO##....######OOoo                 ",
"                         ..XX########OO########OO               ",
"                         ..XX########OO########OO               ",
"                           ....##################oo             ",
"                           ....##################oo             ",
"                 ..XXXXXX    XX..OO##############oo             ",
"                 ..XXXXXX    XX..OO##############oo             ",
"                 ..@@@@XX  XXoo@@@@########$$####XX             ",
"                 ..@@@@XX  XXoo@@@@########$$####XX             ",
"                 ..@@@@@@XX@@oooo@@@@######..##@@XX             ",
"                 ..@@@@@@XX@@oooo@@@@######..##@@XX             ",
"                 ..@@@@@@XXoo@@@@@@@@@@++++##@@XX               ",
"                 ..@@@@@@XXoo@@@@@@@@@@++++##@@XX               ",
"                   XX..@@XXoooo@@@@@@@@++++....                 ",
"                   XX..@@XXoooo@@@@@@@@++++....                 ",
"                     ..OOXX@@@@@@@@@@oo....                     ",
"                     ..OOXX@@@@@@@@@@oo....                     ",
"                     ....OO@@@@@@@@@@@@OOoo                     ",
"                     ....OO@@@@@@@@@@@@OOoo                     ",
"                       ..OOXX@@@@@@@@oooo                       ",
"                       ..OOXX@@@@@@@@oooo                       ",
"                         ..OOoo..oo@@@@..                       ",
"                         ..OOoo..oo@@@@..                       ",
"                                 oo....                         ",
"                                 oo....                         ",
"                                                                ",
"                                                                ",
"                                                                "
};
