/* XPM */
static char *_069eb536d4f47958423b30c2b9cbf74OHexcVf88eLzrIUQ[] = {
/* columns rows colors chars-per-pixel */
"64 64 32 1 ",
"  c None",
". c #701000",
"X c #482818",
"o c #784800",
"O c #404048",
"+ c #901000",
"@ c #A01000",
"# c #A82000",
"$ c #A03010",
"% c #C80800",
"& c #C02800",
"* c #D82808",
"= c #E83008",
"- c #984828",
"; c #A06038",
": c #C05008",
"> c #E04008",
", c #F04008",
"< c #F84008",
"1 c #F85808",
"2 c #F84810",
"3 c #F04820",
"4 c #C87030",
"5 c #B08808",
"6 c #F09800",
"7 c #F0C000",
"8 c #F8F000",
"9 c #D8C820",
"0 c #908080",
"q c #E8C0B0",
"w c #B8D0D0",
"e c #F8F8F8",
/* pixels */
"                                                                ",
"                                                                ",
"                                                                ",
"                                                                ",
"                                                                ",
"                                                                ",
"                                                                ",
"                                                                ",
"                                                                ",
"                                                                ",
"                                                                ",
"                                                                ",
"                                                                ",
"                                                                ",
"                                                                ",
"                                                                ",
"                                                                ",
"                                                                ",
"                     778888889755                               ",
"                  16785588555585555:&*><<,,<=*&#++              ",
"                :467o.Xo$#&=<>>&**<<2111122,,*&###+             ",
"           2>,<:6Oo$22111111333>22>>>:>>>,<<<,&##+++            ",
"          21,=&oo$111113:-000;+++#=11122>:&-&$4$++++.           ",
"          22,=>221111>;;-4q3$0qwe0*112212110&o89+++++           ",
"           2,*11111<$,<<<<<*;eeeeq&116171<11<&;wX++++           ",
"           1,*222<$00*><,,<*$eeeew&117776%=21<+0O++++.          ",
"           <,*=<<=0ee<22222>&eeeee#126668%%*2<4-0++++.          ",
"           ,,==<<&0ee2333:2>&qeOOw#1<:668&%%><4&>#+#+.          ",
"           ,,*=<<$0qq>----$>#0eXXe$1**668:%%&<<&,#+#+.          ",
"           ,<*=<<&4q4>6466>>&0eO0e$1%&8777%%@,,$>#+#+.          ",
"           ,,==<<.wew1--4-2>&0eeee;<%%>6>8%%@,,&>&+#++          ",
"           ,,*=<<$qq44---X,>&0eeee;1%&7768&%@=,&,&+#++          ",
"           ,<==<<$qwq18997>>&0eeee;1%%>6676%@,,&>#+#++          ",
"           ,,*=<<.wew$9958>>&0ewee;1%%>7668%@<,&>&+#++          ",
"           ,,*=<<&444-9998>>&0eXOe$1,%%7768&%,,&,#+#+.          ",
"           ,,==<<#weq689892>&0eXXw$12%%6768&*<,$,#+#+.          ",
"           2<**<<&0eq*;:-:<>#0e00e#11%%866:%2<0$>#+#+.          ",
"           2,*,<<*Oee<22222>+qeeee#1126667*,2<>;0++++.          ",
"           2>*212<*X0*<,<<<*#weeew&11166787><<+0O++++.          ",
"           1,=11111<=,2<1<<*Xeeeeq&11161<<<2<#0e-++++           ",
"          22,=>>211113;;-0qq;-0ww0*111121220$$89+++++           ",
"          21<=*oo$&211113>;00;-##&*2>>>*&&&$*$-+++++.           ",
"            >=**665o&,*121111111222222222,,,,=&&#++.            ",
"                &>675oXo5oo$#&*$$#,<<211222,=*&###+             ",
"                   67875888899989555#&*==***&&#++               ",
"                      7788888896                                ",
"                                                                ",
"                                                                ",
"                                                                ",
"                                                                ",
"                                                                ",
"                                                                ",
"                                                                ",
"                                                                ",
"                                                                ",
"                                                                ",
"                                                                ",
"                                                                ",
"                                                                ",
"                                                                ",
"                                                                ",
"                                                                ",
"                                                                ",
"                                                                "
};
