/* XPM */
static char *_9139ee4688947719baf035216651fb6uZFiQBgazlSDQrQ1[] = {
/* columns rows colors chars-per-pixel */
"64 64 180 2 ",
"   c None",
".  c #476619",
"X  c #47651A",
"o  c #47601D",
"O  c #46611D",
"+  c #47631C",
"@  c #47621D",
"#  c #486719",
"$  c #48651A",
"%  c #48651B",
"&  c #48621D",
"*  c #48631D",
"=  c #48611F",
"-  c #48621E",
";  c #486818",
":  c #496918",
">  c #4A6A19",
",  c #49681A",
"<  c #54741E",
"1  c #56761F",
"2  c #41452D",
"3  c #41462D",
"4  c #40442E",
"5  c #404B2A",
"6  c #414B2A",
"7  c #414A2B",
"8  c #424D29",
"9  c #404F28",
"0  c #414F28",
"q  c #404E29",
"w  c #434E29",
"e  c #41482C",
"r  c #42482C",
"t  c #415127",
"y  c #435127",
"u  c #415227",
"i  c #445127",
"p  c #445227",
"a  c #435525",
"s  c #435724",
"d  c #435625",
"f  c #425426",
"g  c #435426",
"h  c #445424",
"j  c #455525",
"k  c #455724",
"l  c #455426",
"z  c #455923",
"x  c #465923",
"c  c #455A23",
"v  c #465B22",
"b  c #465A23",
"n  c #465D21",
"m  c #475E20",
"M  c #465F20",
"N  c #475F20",
"B  c #475E21",
"V  c #475F21",
"C  c #465C22",
"Z  c #475C22",
"A  c #475D22",
"S  c #465824",
"D  c #475824",
"F  c #465A26",
"G  c #465C24",
"H  c #495F24",
"J  c #485E25",
"K  c #405028",
"L  c #4A5A2B",
"P  c #4B5B2B",
"I  c #4D5D2D",
"U  c #4C5D2E",
"Y  c #444232",
"T  c #454232",
"R  c #484630",
"E  c #484432",
"W  c #49483C",
"Q  c #514B32",
"!  c #514838",
"~  c #514938",
"^  c #524938",
"/  c #554B38",
"(  c #574B38",
")  c #584C38",
"_  c #594C38",
"`  c #5A4D38",
"'  c #5C4E38",
"]  c #5E4F38",
"[  c #5F4F38",
"{  c #445536",
"}  c #475B33",
"|  c #5F5038",
" . c #5D513F",
".. c #605038",
"X. c #625139",
"o. c #6C563E",
"O. c #6F573F",
"+. c #486020",
"@. c #496122",
"#. c #496222",
"$. c #4A6421",
"%. c #4D6722",
"&. c #4F6722",
"*. c #4B6324",
"=. c #4C6424",
"-. c #4D6820",
";. c #526F20",
":. c #526D22",
">. c #526E22",
",. c #526F22",
"<. c #546F22",
"1. c #556F25",
"2. c #566C2B",
"3. c #586F2D",
"4. c #537021",
"5. c #547121",
"6. c #557320",
"7. c #557321",
"8. c #557222",
"9. c #567421",
"0. c #567620",
"q. c #577620",
"w. c #567026",
"e. c #587720",
"r. c #587820",
"t. c #587920",
"y. c #597920",
"u. c #597A20",
"i. c #5A7B20",
"p. c #5A7C20",
"a. c #5B7F20",
"s. c #5C7E20",
"d. c #566437",
"f. c #5C6A3C",
"g. c #5D7331",
"h. c #5F7531",
"j. c #617735",
"k. c #617C32",
"l. c #637935",
"z. c #63763A",
"x. c #657E3A",
"c. c #4E4F43",
"v. c #735A40",
"b. c #6A7D41",
"n. c #826440",
"m. c #856640",
"M. c #5C8020",
"N. c #5C8120",
"B. c #5E8320",
"V. c #5E8420",
"C. c #5E8520",
"Z. c #5F8620",
"A. c #638623",
"S. c #608820",
"D. c #638920",
"F. c #648A20",
"G. c #658B20",
"H. c #658B21",
"J. c #648822",
"K. c #648923",
"L. c #668D20",
"P. c #668C21",
"I. c #678E21",
"U. c #678F21",
"Y. c #689020",
"T. c #699121",
"R. c #6A9222",
"E. c #6A9026",
"W. c #6E9626",
"Q. c #6F9727",
"!. c #709828",
"~. c #729A29",
"^. c #749C2A",
"/. c #668234",
"(. c #678238",
"). c #6D893B",
"_. c #7CA42E",
"`. c #7EA62F",
"'. c #6F8844",
"]. c #80A830",
/* pixels */
"                                                                                                                                ",
"                                                                                                                                ",
"                                                                                                                                ",
"                                                      '.(.(.F.F.F.F.k.k.x.                                                      ",
"                                                    ).U.R.Q.!.!.!.!.Q.R.U./.                                                    ",
"                                                  F.U.Q.Q.!.!._._.!.!.Q.Q.U.F.                                                  ",
"                                                A.Q.!.!.!.!.].].].].!.!.!.!.Q.A.                                                ",
"                                              l.R.Q._._.!.!.].].].].!.!._._.Q.R.h.                                              ",
"                                            b.U.!._.].].].].!.!.!.!.].].].]._.!.U.z.                                            ",
"                                          j.U.R.!._.].].].].!.!.!.!.].].].]._.!.R.U.g.                                          ",
"                                        &.F.R.R.!.!._.].].].!.!.!.!.].].]._.!.!.R.R.F.&.                                        ",
"                                      w.6.F.R.Q.!.!.^._.].]._.!.!._.].]._.^.!.!.Q.R.F.6.1.                                      ",
"                                      6.u.U.!.!.!.!.!._.].]._.!.!._.].]._.!.!.!.!.!.U.u.6.                                      ",
"                                    3.e.u.U.!.!.!.!.!.!.].].!.!.!.!.].].!.!.!.!.!.!.U.u.e.2.                                    ",
"                                  f.u.u.u.u.U.Q.Q.R.!.!.!.!.!.!.!.!.!.!.!.!.R.Q.Q.U.u.u.u.u.d.                                  ",
"                                  w.u.u.Z.Z.s.U.R.R.!.!.!.!.!.!.!.!.!.!.!.!.R.R.U.s.Z.Z.u.u.1.                                  ",
"                                  <.u.Z.S.S.u.u.,.F.R.Q.!.Q.!.!.!.!.Q.!.Q.R.F.,.e.e.A.S.Z.u.<.                                  ",
"                                L *.u.Z.S.S.u.u.,.F.R.R.Q.R.!.!.!.!.R.Q.R.R.F.,.q.1 S.S.Z.u.*.I                                 ",
"                              I + #.q.u.Z.Z.u.u.q.u.R.R.R.R.!.!.!.!.Y.Y.R.R.u.q.u.u.Z.Z.u.q.#.+ L                               ",
"                              M % + &.q.u.u.Z.u.u.u.S.R.F.s.!.!.!.!.s.F.R.R.u.u.u.Z.u.u.q.&.+ % M                               ",
"                            w M % ; M ,.6.,.S.S.Z.u.q.-.-.s.F.E.E.F.s.-.&.q.u.Z.S.S.,.6.,.M ; % M w                             ",
"                            K t % ; X M G 6.S.S.Z.u.e.u.u.u.,.4.4.,.u.u.e.e.u.Z.S.S.6.G M X ; % t K                             ",
"                          w t M % ; ; ; M 6.Z.Z.u.u.u.u.u.u.u.u.u.u.u.u.u.e.u.u.Z.Z.6.M ; ; ; % M t w                           ",
"                          w 5 M % ; ; ; ; 1 u.u.u.u.N.Z.N.u.u.u.u.u.u.N.Z.s.u.u.u.u.1 ; ; ; ; % M 5 w                           ",
"                          w 5 x % ; % ; ; $.6.=.u.u.A.A.A.N.p.u.u.p.N.S.S.S.u.u.=.6.$.; ; % ; % x 5 w                           ",
"                          w w i + ; = % ; X M J u.u.A.A.A.S.Z.u.u.Z.S.S.S.S.u.u.J M X ; % = ; + i w w                           ",
"                            t i h #.= % ; ; ; 1 u.u.Z.A.S.S.Z.1 u.Z.S.S.S.Z.u.u.1 ; ; ; % = #.h i t                             ",
"                            t x w i = % ; ; ; ; $.q.u.u.S.S.1 1 u.p.S.S.p.u.q.$.; ; ; ; % = i w x t                             ",
"                              x x w M % % % ; ; X #.,.,.u.u.u.u.u.u.u.u.,.,.#.X ; ; % % % M w x x                               ",
"                              w K w w M = = ; ; ; X + M F F J q.q.J F F M + X ; ; ; = = M w w K w                               ",
"                                K K w w x = ; ; ; % = % ; ; ; ; ; ; ; ; % = % ; ; ; = x w w K K                                 ",
"                                t t K w 5 h ; ; % = = % ; ; ; ; ; ; ; ; % = = % ; ; h 5 w K t t                                 ",
"                                } t K K K 5 4 h F F #.#.% ; ; ; ; ; ; % #.#.F F h 4 5 K K K t }                                 ",
"                                  { K K K K t h F F w #.= % ; ; ; ; % = #.w F F h t K K K K {                                   ",
"                                    w K g t K K t x h r r x M M M M x r r h x t K K t g K w                                     ",
"                                      4 4 g K K K K g #.g K K K K K K g #.g K K K K g 4 4                                       ",
"                                            w K t t g #.g K K K K K K g #.g K K K w                                             ",
"                                              4 K t M #.M t K K K K t M #.M K K 4                                               ",
"                                                E T T T E F #.#.#.#.F E T T T E                                                 ",
"                                                .._ ( ~ ] Q r r r r Q ] ~ ( _ ..                                                ",
"                                              ] | ..] ~ ................~ ] ..| ]                                               ",
"                                              ( ( _ _ ~ o.............o.~ _ _ ( (                                               ",
"                                                      W o.n.v.v.v.v.n.o.W                                                       ",
"                                                        c.o.m.m.m.m.o.c.                                                        ",
"                                                           .v.m.m.v. .                                                          ",
"                                                                                                                                ",
"                                                                                                                                ",
"                                                                                                                                ",
"                                                                                                                                ",
"                                                                                                                                ",
"                                                                                                                                ",
"                                                                                                                                ",
"                                                                                                                                ",
"                                                                                                                                ",
"                                                                                                                                ",
"                                                                                                                                ",
"                                                                                                                                ",
"                                                                                                                                ",
"                                                                                                                                ",
"                                                                                                                                ",
"                                                                                                                                ",
"                                                                                                                                ",
"                                                                                                                                ",
"                                                                                                                                "
};
