/* XPM */
static char *_232191bc16c459ba61fb0fc8ca18e1dyn4TZyeJu7es1M1s[] = {
/* columns rows colors chars-per-pixel */
"64 64 131 2 ",
"   c None",
".  c #070709",
"X  c #080709",
"o  c #0A0D0E",
"O  c #0F0F11",
"+  c #101114",
"@  c #1B1C1C",
"#  c #252525",
"$  c #282626",
"%  c #292927",
"&  c #272728",
"*  c #282729",
"=  c #27282A",
"-  c #2B2B2C",
";  c #302E2F",
":  c #2F302F",
">  c #2F2F30",
",  c #322F31",
"<  c #333233",
"1  c #3C3636",
"2  c #363837",
"3  c #373738",
"4  c #373839",
"5  c #3C3B3C",
"6  c #443E3D",
"7  c #43403F",
"8  c #3F3E40",
"9  c #403F41",
"0  c #434343",
"q  c #484542",
"w  c #484847",
"e  c #464748",
"r  c #47484A",
"t  c #4C4A4B",
"y  c #514E4E",
"u  c #4F4E50",
"i  c #565354",
"p  c #5A5554",
"a  c #5E5B5C",
"s  c #605C5C",
"d  c #67625E",
"f  c #5E5E60",
"g  c #646263",
"h  c #6A6666",
"j  c #6B676A",
"k  c #6D6B6B",
"l  c #716D6D",
"z  c #736F70",
"x  c #757474",
"c  c #7A7676",
"v  c #7C7976",
"b  c #7A7779",
"n  c #7D7B7B",
"m  c #827D7D",
"M  c #87827F",
"N  c #89817F",
"B  c #837D80",
"V  c #858384",
"C  c #8A8484",
"Z  c #8C8886",
"A  c #878788",
"S  c #8C8688",
"D  c #8C8A8B",
"F  c #918D8E",
"G  c #8E908E",
"H  c #93928F",
"J  c #918E91",
"K  c #959393",
"L  c #9A9695",
"P  c #9C9997",
"I  c #9B9799",
"U  c #9D9B9B",
"Y  c #A39D9C",
"T  c #A5A19F",
"R  c #A09FA1",
"E  c #A3A0A1",
"W  c #A4A0A0",
"Q  c #A6A1A1",
"!  c #A7A3A1",
"~  c #A6A3A3",
"^  c #A9A3A3",
"/  c #A9A4A5",
"(  c #ABA7A5",
")  c #AAA6A7",
"_  c #A9A4A5",
"`  c #A9A7A8",
"'  c #ABABA9",
"]  c #ACA8A9",
"[  c #AEAAA9",
"{  c #AFA9AA",
"}  c #ACABAB",
"|  c #AEABAB",
" . c #AEABAC",
".. c #ADADAF",
"X. c #ADAEAF",
"o. c #AFAEAF",
"O. c #ABAAA9",
"+. c #B2ADAE",
"@. c #B6B3AF",
"#. c #AFAFB0",
"$. c #B7AFB0",
"%. c #B7B2B2",
"&. c #B6B5B4",
"*. c #B8B2B2",
"=. c #BAB6B7",
"-. c #BBB8B7",
";. c #BCB9B5",
":. c #BCB9B6",
">. c #BCB8B7",
",. c #B7B6B9",
"<. c #B7B7B9",
"1. c #B8B7B9",
"2. c #BFBBB8",
"3. c #BFBEBF",
"4. c #C0BAB9",
"5. c #C0BBBB",
"6. c #C4C1BD",
"7. c #C6C2C3",
"8. c #CBC6C2",
"9. c #CBC7C4",
"0. c #CAC5C6",
"q. c #CBC6C7",
"w. c #CBC6C4",
"e. c #C8CAC7",
"r. c #C7C7C9",
"t. c #CCCBCB",
"y. c #D0CECF",
"u. c #D0D1CF",
"i. c #D5D0D0",
"p. c #DDDBD7",
"a. c #DFDBD9",
/* pixels */
"                                                                                                                                ",
"                                                                                                                                ",
"                                                                                                                                ",
"                                                                                                                                ",
"                                                                                                                                ",
"                                                                                                                                ",
"                                                                                                                                ",
"                                                                                                                                ",
"                                                                                                                                ",
"                                                                                                                                ",
"                                                                                                                                ",
"                                                                                                                                ",
"                                                                                                                                ",
"                                                                                                                                ",
"                                                                                                                                ",
"                                                                                                                                ",
"                                                          - - - - - -                                                           ",
"                                                    o + e e r r r r e 0 o o                                                     ",
"                                                  @ r e 4 < < < < < < 3 e e &                                                   ",
"                                                3 > 4 4 < < < < < < < < 5 5 5 5                                                 ",
"                                            = - < < < < < 0 r r r r 0 < < < < < 5 9                                             ",
"                                            = - < < - = 5 D <.<.<.<.D 5 - > < < < 3                                             ",
"                                          = - > < - g D U n k E Y j n U D g - < < < 5                                           ",
"                                          = = - > & A A n n u I L t m n D A & > < < <                                           ",
"                                        = # & & i K A h V 1.r ! T q =.n x Y L a , < < 5                                         ",
"                                      @ = # & # A U %.( j  .r ! T q { h { :.Y L - , < 5 <                                       ",
"                                      - = # 8 f j x $.4.{ l i P L y k { 6.2.D v b t < < 0                                       ",
"                                    # = & & r f A z S ^ *.( b T Y b { -.@.P v L A a < < 5 -                                     ",
"                                    = = # # b g R ` k g ! b U v v U V ! a l ' ' n G = , < 5                                     ",
"                                    - = # # b 5 8 0 < < { C m 0 e m I ( # ; 0 0 w D * , 3 0                                     ",
"                                    - = # # { L Y Y Y 0.V m t o.#.t Y ! a.:.0.0.4.i.# - < 0                                     ",
"                                    - = # # { L Y Y Y 0.x b t o.o.t L Z p.:.8.8.4.i.# - < 0                                     ",
"                                    - = # # U m m m m ! K V i J K a Y L [ K U Y Y 7.# - 2 e                                     ",
"                                    - = # # A t 6 6 6 p ( F i t i j L v t q t t s T # - 2 0                                     ",
"                                    - = # # A b u.e.K b L g S B m C h L b L r.t.v U # - 2 0                                     ",
"                                    - = # # V A e.} h m L Y L C C K +.+.L b ' 3.b F * : < 0                                     ",
"                                    # = & = i v g h T Y M d 6 D S 5 b Y 8.9.v g l i < < 5 5                                     ",
"                                    # = & & 7 h x C Y Y h m 6 m m 1 S v 8.8.{ D z r < < 5 5                                     ",
"                                      # = & # # m V v h &.e.5 C N 1 0.' l H ! I - , < < #                                       ",
"                                      - & & # # y V h V 7.y.5 C N 1 t.3.V k U s < < < < #                                       ",
"                                        & & # # = - b n ~ D 7 m v 6 D Y c x # - < - - =                                         ",
"                                        - - # # = - a n K b a C M p x K x i # * - - - =                                         ",
"                                          < & & # # - = < b I I U I b < # # # # = - #                                           ",
"                                            = = & * = = = < 5 5 5 5 < = * # # # = =                                             ",
"                                            e = = = = = = # # # # # # # = = # # = 0                                             ",
"                                                  @ > - - = # # # # # = - - @                                                   ",
"                                                    X X O # > - - - * + X X                                                     ",
"                                                          - # # # # -                                                           ",
"                                                                                                                                ",
"                                                                                                                                ",
"                                                                                                                                ",
"                                                                                                                                ",
"                                                                                                                                ",
"                                                                                                                                ",
"                                                                                                                                ",
"                                                                                                                                ",
"                                                                                                                                ",
"                                                                                                                                ",
"                                                                                                                                ",
"                                                                                                                                ",
"                                                                                                                                ",
"                                                                                                                                ",
"                                                                                                                                ",
"                                                                                                                                "
};
